<?xml version="1.0" encoding="UTF-8" standalone="no"?>
<!DOCTYPE svg PUBLIC "-//W3C//DTD SVG 1.1//EN" "http://www.w3.org/Graphics/SVG/1.1/DTD/svg11.dtd">
<!-- Generated by graphviz version 2.40.1 (20161225.0304)
 -->
<!-- Title: %0 Pages: 1 -->
<svg width="877pt" height="461pt" viewBox="0.00 0.00 877.00 460.80" xmlns="http://www.w3.org/2000/svg" xmlns:xlink="http://www.w3.org/1999/xlink">
<g id="graph0" class="graph" transform="scale(1 1) rotate(0) translate(4 456.8)">
<title>%0</title>
<polygon fill="#ffffff" stroke="transparent" points="-4,4 -4,-456.8 873,-456.8 873,4 -4,4"/>
<g id="clust1" class="cluster">
<title>cluster_0</title>
<polygon fill="none" stroke="#000000" points="8,-8 8,-444.8 861,-444.8 861,-8 8,-8"/>
<text text-anchor="middle" x="434.5" y="-428.2" font-family="Times,serif" font-size="14.00" fill="#000000">lib_func</text>
</g>
<!-- 1 -->
<g id="node1" class="node">
<title>1</title>
<ellipse fill="none" stroke="#000000" cx="436" cy="-394" rx="18" ry="18"/>
</g>
<!-- 2 -->
<g id="node2" class="node">
<title>2</title>
<polygon fill="none" stroke="#000000" points="436,-340 409,-322 436,-304 463,-322 436,-340"/>
<text text-anchor="middle" x="436" y="-317.8" font-family="Times,serif" font-size="14.00" fill="#000000">m</text>
</g>
<!-- 1&#45;&gt;2 -->
<g id="edge1" class="edge">
<title>1-&gt;2</title>
<path fill="none" stroke="#000000" d="M436,-375.8314C436,-368.131 436,-358.9743 436,-350.4166"/>
<polygon fill="#000000" stroke="#000000" points="439.5001,-350.4132 436,-340.4133 432.5001,-350.4133 439.5001,-350.4132"/>
</g>
<!-- 3 -->
<g id="node3" class="node">
<title>3</title>
<polygon fill="none" stroke="#000000" points="273,-268 217.3521,-250 273,-232 328.6479,-250 273,-268"/>
<text text-anchor="middle" x="273" y="-245.8" font-family="Times,serif" font-size="14.00" fill="#000000">options</text>
</g>
<!-- 2&#45;&gt;3 -->
<g id="edge2" class="edge">
<title>2-&gt;3</title>
<path fill="none" stroke="#000000" d="M419.4737,-314.7C392.9146,-302.9684 340.2325,-279.6978 305.8223,-264.4982"/>
<polygon fill="#000000" stroke="#000000" points="307.1999,-261.2805 296.6383,-260.4415 304.3714,-267.6836 307.1999,-261.2805"/>
</g>
<!-- 8 -->
<g id="node4" class="node">
<title>8</title>
<polygon fill="none" stroke="#000000" points="853.1595,-268 346.8405,-268 346.8405,-232 853.1595,-232 853.1595,-268"/>
<text text-anchor="middle" x="600" y="-245.8" font-family="Times,serif" font-size="14.00" fill="#000000">ASSIGNMENT ( m CALLORINDEXER ( Model CALLORINDEXER ( options 0 ) ) )</text>
</g>
<!-- 2&#45;&gt;8 -->
<g id="edge3" class="edge">
<title>2-&gt;8</title>
<path fill="none" stroke="#000000" d="M452.3245,-314.8331C474.7415,-304.9915 516.0568,-286.8531 549.2983,-272.2593"/>
<polygon fill="#000000" stroke="#000000" points="551.131,-275.2772 558.8804,-268.0525 548.317,-268.8677 551.131,-275.2772"/>
</g>
<!-- 7 -->
<g id="node5" class="node">
<title>7</title>
<polygon fill="none" stroke="#000000" points="645.9072,-196 456.0928,-196 456.0928,-160 645.9072,-160 645.9072,-196"/>
<text text-anchor="middle" x="551" y="-173.8" font-family="Times,serif" font-size="14.00" fill="#000000">CALLORINDEXER ( m null )</text>
</g>
<!-- 3&#45;&gt;7 -->
<g id="edge4" class="edge">
<title>3-&gt;7</title>
<path fill="none" stroke="#000000" d="M303.0587,-241.5285C314.0397,-238.4727 326.5686,-235.0315 338,-232 380.832,-220.6415 428.6468,-208.4732 468.1045,-198.5684"/>
<polygon fill="#000000" stroke="#000000" points="469.0991,-201.9274 477.9479,-196.1009 467.397,-195.1375 469.0991,-201.9274"/>
</g>
<!-- 4 -->
<g id="node6" class="node">
<title>4</title>
<polygon fill="none" stroke="#000000" points="417.7969,-196 16.2031,-196 16.2031,-160 417.7969,-160 417.7969,-196"/>
<text text-anchor="middle" x="217" y="-173.8" font-family="Times,serif" font-size="14.00" fill="#000000">ASSIGNMENT ( opt CALLORINDEXER ( options MINUS ( 1 ) ) )</text>
</g>
<!-- 3&#45;&gt;4 -->
<g id="edge5" class="edge">
<title>3-&gt;4</title>
<path fill="none" stroke="#000000" d="M261.6676,-235.4297C254.7073,-226.4809 245.5867,-214.7543 237.4028,-204.2322"/>
<polygon fill="#000000" stroke="#000000" points="240.0017,-201.8727 231.0995,-196.128 234.4762,-206.1703 240.0017,-201.8727"/>
</g>
<!-- 9 -->
<g id="node10" class="node">
<title>9</title>
<polygon fill="none" stroke="#000000" points="852.9072,-196 663.0928,-196 663.0928,-160 852.9072,-160 852.9072,-196"/>
<text text-anchor="middle" x="758" y="-173.8" font-family="Times,serif" font-size="14.00" fill="#000000">CALLORINDEXER ( m null )</text>
</g>
<!-- 8&#45;&gt;9 -->
<g id="edge10" class="edge">
<title>8-&gt;9</title>
<path fill="none" stroke="#000000" d="M639.8701,-231.8314C660.9077,-222.2446 686.8983,-210.4008 709.1396,-200.2655"/>
<polygon fill="#000000" stroke="#000000" points="710.7683,-203.3697 718.4166,-196.038 707.8655,-196.9999 710.7683,-203.3697"/>
</g>
<!-- 10 -->
<g id="node9" class="node">
<title>10</title>
<ellipse fill="none" stroke="#000000" cx="654" cy="-106" rx="18" ry="18"/>
</g>
<!-- 7&#45;&gt;10 -->
<g id="edge9" class="edge">
<title>7-&gt;10</title>
<path fill="none" stroke="#000000" d="M576.9912,-159.8314C593.5849,-148.2319 614.9054,-133.3283 630.9041,-122.1447"/>
<polygon fill="#000000" stroke="#000000" points="632.9901,-124.9569 639.1809,-116.359 628.9796,-119.2196 632.9901,-124.9569"/>
</g>
<!-- 5 -->
<g id="node7" class="node">
<title>5</title>
<polygon fill="none" stroke="#000000" points="363.5168,-124 178.4832,-124 178.4832,-88 363.5168,-88 363.5168,-124"/>
<text text-anchor="middle" x="271" y="-101.8" font-family="Times,serif" font-size="14.00" fill="#000000">CALLORINDEXER ( m opt )</text>
</g>
<!-- 4&#45;&gt;5 -->
<g id="edge6" class="edge">
<title>4-&gt;5</title>
<path fill="none" stroke="#000000" d="M230.6265,-159.8314C236.846,-151.5386 244.3322,-141.557 251.16,-132.4533"/>
<polygon fill="#000000" stroke="#000000" points="253.99,-134.5133 257.19,-124.4133 248.39,-130.3133 253.99,-134.5133"/>
</g>
<!-- 6 -->
<g id="node8" class="node">
<title>6</title>
<polygon fill="none" stroke="#000000" points="601.7703,-52 102.2297,-52 102.2297,-16 601.7703,-16 601.7703,-52"/>
<text text-anchor="middle" x="352" y="-29.8" font-family="Times,serif" font-size="14.00" fill="#000000">ASSIGNMENT ( opt CALLORINDEXER ( options Expressions ( 0 MINUS ( 1 ) ) ) )</text>
</g>
<!-- 5&#45;&gt;6 -->
<g id="edge7" class="edge">
<title>5-&gt;6</title>
<path fill="none" stroke="#000000" d="M291.4397,-87.8314C301.3205,-79.0485 313.3324,-68.3712 324.045,-58.8489"/>
<polygon fill="#000000" stroke="#000000" points="326.418,-61.4224 331.5668,-52.1628 321.7674,-56.1906 326.418,-61.4224"/>
</g>
<!-- 6&#45;&gt;3 -->
<g id="edge8" class="edge">
<title>6-&gt;3</title>
<path fill="none" stroke="#000000" d="M372.1976,-52.1574C404.456,-83.3815 460.7017,-148.469 427,-196 420.1206,-205.7024 356.007,-225.9102 312.7032,-238.6671"/>
<polygon fill="#000000" stroke="#000000" points="311.6156,-235.3385 302.9995,-241.5041 313.5799,-242.0572 311.6156,-235.3385"/>
</g>
<!-- 9&#45;&gt;10 -->
<g id="edge11" class="edge">
<title>9-&gt;10</title>
<path fill="none" stroke="#000000" d="M731.7564,-159.8314C715.0017,-148.2319 693.4742,-133.3283 677.3201,-122.1447"/>
<polygon fill="#000000" stroke="#000000" points="679.1771,-119.1734 668.9629,-116.359 675.1926,-124.9288 679.1771,-119.1734"/>
</g>
</g>
</svg>