<?xml version="1.0" encoding="UTF-8" standalone="no"?>
<!DOCTYPE svg PUBLIC "-//W3C//DTD SVG 1.1//EN" "http://www.w3.org/Graphics/SVG/1.1/DTD/svg11.dtd">
<!-- Generated by graphviz version 2.40.1 (20161225.0304)
 -->
<!-- Title: %0 Pages: 1 -->
<svg width="546pt" height="317pt" viewBox="0.00 0.00 546.00 316.80" xmlns="http://www.w3.org/2000/svg" xmlns:xlink="http://www.w3.org/1999/xlink">
<g id="graph0" class="graph" transform="scale(1 1) rotate(0) translate(4 312.8)">
<title>%0</title>
<polygon fill="#ffffff" stroke="transparent" points="-4,4 -4,-312.8 542,-312.8 542,4 -4,4"/>
<g id="clust1" class="cluster">
<title>cluster_0</title>
<polygon fill="none" stroke="#000000" points="8,-8 8,-300.8 530,-300.8 530,-8 8,-8"/>
<text text-anchor="middle" x="269" y="-284.2" font-family="Times,serif" font-size="14.00" fill="#000000">main</text>
</g>
<!-- 6 -->
<g id="node1" class="node">
<title>6</title>
<ellipse fill="none" stroke="#000000" cx="348" cy="-250" rx="18" ry="18"/>
</g>
<!-- 7 -->
<g id="node2" class="node">
<title>7</title>
<polygon fill="none" stroke="#000000" points="348,-196 173.7016,-178 348,-160 522.2984,-178 348,-196"/>
<text text-anchor="middle" x="348" y="-173.8" font-family="Times,serif" font-size="14.00" fill="#000000">LESSTHAN ( sock 655546 )</text>
</g>
<!-- 6&#45;&gt;7 -->
<g id="edge1" class="edge">
<title>6-&gt;7</title>
<path fill="none" stroke="#000000" d="M348,-231.8314C348,-224.131 348,-214.9743 348,-206.4166"/>
<polygon fill="#000000" stroke="#000000" points="351.5001,-206.4132 348,-196.4133 344.5001,-206.4133 351.5001,-206.4132"/>
</g>
<!-- 10 -->
<g id="node3" class="node">
<title>10</title>
<polygon fill="none" stroke="#000000" points="246.1035,-124 15.8965,-124 15.8965,-88 246.1035,-88 246.1035,-124"/>
<text text-anchor="middle" x="131" y="-101.8" font-family="Times,serif" font-size="14.00" fill="#000000">CALLORINDEXER ( set_sock sock )</text>
</g>
<!-- 7&#45;&gt;10 -->
<g id="edge2" class="edge">
<title>7-&gt;10</title>
<path fill="none" stroke="#000000" d="M306.417,-164.2029C275.0324,-153.7895 231.3923,-139.3099 195.492,-127.3983"/>
<polygon fill="#000000" stroke="#000000" points="196.1815,-123.9395 185.5881,-124.1122 193.9771,-130.5833 196.1815,-123.9395"/>
</g>
<!-- 8 -->
<g id="node4" class="node">
<title>8</title>
<polygon fill="none" stroke="#000000" points="501.6315,-124 264.3685,-124 264.3685,-88 501.6315,-88 501.6315,-124"/>
<text text-anchor="middle" x="383" y="-101.8" font-family="Times,serif" font-size="14.00" fill="#000000">ASSIGNMENT ( tmp PLUS ( tmp 1 ) )</text>
</g>
<!-- 7&#45;&gt;8 -->
<g id="edge3" class="edge">
<title>7-&gt;8</title>
<path fill="none" stroke="#000000" d="M356.4725,-160.5708C360.4666,-152.3544 365.3246,-142.3608 369.7865,-133.1821"/>
<polygon fill="#000000" stroke="#000000" points="373.0158,-134.5445 374.24,-124.0206 366.7202,-131.4841 373.0158,-134.5445"/>
</g>
<!-- 11 -->
<g id="node6" class="node">
<title>11</title>
<ellipse fill="none" stroke="#000000" cx="131" cy="-34" rx="18" ry="18"/>
</g>
<!-- 10&#45;&gt;11 -->
<g id="edge6" class="edge">
<title>10-&gt;11</title>
<path fill="none" stroke="#000000" d="M131,-87.8314C131,-80.131 131,-70.9743 131,-62.4166"/>
<polygon fill="#000000" stroke="#000000" points="134.5001,-62.4132 131,-52.4133 127.5001,-62.4133 134.5001,-62.4132"/>
</g>
<!-- 9 -->
<g id="node5" class="node">
<title>9</title>
<polygon fill="none" stroke="#000000" points="517.7225,-52 256.2775,-52 256.2775,-16 517.7225,-16 517.7225,-52"/>
<text text-anchor="middle" x="387" y="-29.8" font-family="Times,serif" font-size="14.00" fill="#000000">ASSIGNMENT ( sock STAR ( sock tmp ) )</text>
</g>
<!-- 8&#45;&gt;9 -->
<g id="edge4" class="edge">
<title>8-&gt;9</title>
<path fill="none" stroke="#000000" d="M384.0094,-87.8314C384.4372,-80.131 384.9459,-70.9743 385.4213,-62.4166"/>
<polygon fill="#000000" stroke="#000000" points="388.9169,-62.592 385.977,-52.4133 381.9276,-62.2037 388.9169,-62.592"/>
</g>
<!-- 9&#45;&gt;7 -->
<g id="edge5" class="edge">
<title>9-&gt;7</title>
<path fill="none" stroke="#000000" d="M465.0706,-52.0316C483.1239,-60.0173 500.1903,-71.5023 511,-88 519.7689,-101.3831 520.3673,-111.0287 511,-124 499.4155,-140.0415 456.0149,-153.9667 416.91,-163.657"/>
<polygon fill="#000000" stroke="#000000" points="415.9827,-160.2802 407.0826,-166.0281 417.6246,-167.0849 415.9827,-160.2802"/>
</g>
</g>
</svg>