<?xml version="1.0" encoding="UTF-8" standalone="no"?>
<!DOCTYPE svg PUBLIC "-//W3C//DTD SVG 1.1//EN" "http://www.w3.org/Graphics/SVG/1.1/DTD/svg11.dtd">
<!-- Generated by graphviz version 2.40.1 (20161225.0304)
 -->
<!-- Title: %0 Pages: 1 -->
<svg width="722pt" height="317pt" viewBox="0.00 0.00 722.00 316.80" xmlns="http://www.w3.org/2000/svg" xmlns:xlink="http://www.w3.org/1999/xlink">
<g id="graph0" class="graph" transform="scale(1 1) rotate(0) translate(4 312.8)">
<title>%0</title>
<polygon fill="#ffffff" stroke="transparent" points="-4,4 -4,-312.8 718,-312.8 718,4 -4,4"/>
<g id="clust1" class="cluster">
<title>cluster_0</title>
<polygon fill="none" stroke="#000000" points="8,-8 8,-300.8 706,-300.8 706,-8 8,-8"/>
<text text-anchor="middle" x="357" y="-284.2" font-family="Times,serif" font-size="14.00" fill="#000000">set_sock</text>
</g>
<!-- 1 -->
<g id="node1" class="node">
<title>1</title>
<ellipse fill="none" stroke="#000000" cx="337" cy="-250" rx="18" ry="18"/>
</g>
<!-- 2 -->
<g id="node2" class="node">
<title>2</title>
<polygon fill="none" stroke="#000000" points="337,-196 125.1373,-178 337,-160 548.8627,-178 337,-196"/>
<text text-anchor="middle" x="337" y="-173.8" font-family="Times,serif" font-size="14.00" fill="#000000">BRACES ( EQUALITY ( sock 0 ) )</text>
</g>
<!-- 1&#45;&gt;2 -->
<g id="edge1" class="edge">
<title>1-&gt;2</title>
<path fill="none" stroke="#000000" d="M337,-231.8314C337,-224.131 337,-214.9743 337,-206.4166"/>
<polygon fill="#000000" stroke="#000000" points="340.5001,-206.4132 337,-196.4133 333.5001,-206.4133 340.5001,-206.4132"/>
</g>
<!-- 3 -->
<g id="node3" class="node">
<title>3</title>
<polygon fill="none" stroke="#000000" points="178.1825,-124 15.8175,-124 15.8175,-88 178.1825,-88 178.1825,-124"/>
<text text-anchor="middle" x="97" y="-101.8" font-family="Times,serif" font-size="14.00" fill="#000000">ASSIGNMENT ( sock 2 )</text>
</g>
<!-- 2&#45;&gt;3 -->
<g id="edge2" class="edge">
<title>2-&gt;3</title>
<path fill="none" stroke="#000000" d="M290.1558,-163.9468C255.1212,-153.4364 206.6336,-138.8901 167.0045,-127.0013"/>
<polygon fill="#000000" stroke="#000000" points="167.9791,-123.6397 157.3951,-124.1185 165.9676,-130.3445 167.9791,-123.6397"/>
</g>
<!-- 4 -->
<g id="node4" class="node">
<title>4</title>
<polygon fill="none" stroke="#000000" points="697.6994,-124 196.3006,-124 196.3006,-88 697.6994,-88 697.6994,-124"/>
<text text-anchor="middle" x="447" y="-101.8" font-family="Times,serif" font-size="14.00" fill="#000000">ASSIGNMENT ( sock CALLORINDEXER ( to_int CALLORINDEXER ( argv 1 ) ) )</text>
</g>
<!-- 2&#45;&gt;4 -->
<g id="edge3" class="edge">
<title>2-&gt;4</title>
<path fill="none" stroke="#000000" d="M361.4126,-162.0209C375.8319,-152.5828 394.3639,-140.4527 410.4941,-129.8948"/>
<polygon fill="#000000" stroke="#000000" points="412.7166,-132.6232 419.1668,-124.2181 408.883,-126.7662 412.7166,-132.6232"/>
</g>
<!-- 5 -->
<g id="node5" class="node">
<title>5</title>
<ellipse fill="none" stroke="#000000" cx="272" cy="-34" rx="18" ry="18"/>
</g>
<!-- 3&#45;&gt;5 -->
<g id="edge4" class="edge">
<title>3-&gt;5</title>
<path fill="none" stroke="#000000" d="M141.1599,-87.8314C174.1657,-74.2518 218.1785,-56.1437 245.8046,-44.7775"/>
<polygon fill="#000000" stroke="#000000" points="247.2743,-47.9576 255.1905,-40.9159 244.6109,-41.4841 247.2743,-47.9576"/>
</g>
<!-- 4&#45;&gt;5 -->
<g id="edge5" class="edge">
<title>4-&gt;5</title>
<path fill="none" stroke="#000000" d="M402.8401,-87.8314C369.8343,-74.2518 325.8215,-56.1437 298.1954,-44.7775"/>
<polygon fill="#000000" stroke="#000000" points="299.3891,-41.4841 288.8095,-40.9159 296.7257,-47.9576 299.3891,-41.4841"/>
</g>
</g>
</svg>